<svg xmlns="http://www.w3.org/2000/svg" width="24" height="24" viewBox="0 0 24 24">
    <g fill="none" fill-rule="evenodd">
        <path fill="#EDA3A3" d="M19.17 12.241l-7.415-7.42a.55.55 0 0 0-.43-.152L5.767 5.3a.525.525 0 0 0-.467.467l-.631 5.563a.535.535 0 0 0 .151.43l7.415 7.42c.1.102.24.152.379.152s.265-.05.378-.151l6.19-6.195a.515.515 0 0 0 .151-.38.608.608 0 0 0-.164-.366zm-13.415-1.05l.556-4.879 4.875-.556 5.04 5.044-5.431 5.436-5.04-5.044zm6.859 6.865l-1.061-1.061 5.43-5.437 1.062 1.062-5.431 5.436zM10.757 7.918a2.002 2.002 0 0 1 0 2.844c-.392.38-.884.594-1.428.594a2.016 2.016 0 0 1-1.427-3.439c.392-.379.884-.594 1.427-.594.544 0 1.049.215 1.428.595zm-.745 2.098a.914.914 0 0 0 .265-.683.948.948 0 0 0-1.617-.67.97.97 0 0 0 0 1.353c.366.354.998.354 1.352 0z"/>
    </g>
</svg>
