<svg xmlns="http://www.w3.org/2000/svg" xmlns:xlink="http://www.w3.org/1999/xlink" width="140" height="39" viewBox="0 0 140 39">
    <defs>
        <path id="a" d="M.244.199h96.473v9.584H.244z"/>
        <path id="c" d="M0 .131h38.624v36.534H0z"/>
    </defs>
    <g fill="none" fill-rule="evenodd">
        <path fill="#FFF" d="M87.22 28.272c-.364.197-.814.42-1.163.476 0 0-1.65.159-1.985.093-.82-.163-1.808-.25-2.523-.962l-.778-.794c-.313-.754-.047-1.184.122-1.537.258-.54 1.01-1.007 1.356-1.147.482-.196.95-.409 2.71-.312 0 0 .717.039 1.045.162.109.041.89.358 1.114.454 1.142.487 1.421 1.095 1.383 1.805-.039.735-.769 1.401-1.28 1.762"/>
        <path fill="#FFF" d="M134.938 26.295V17.45h-.984c-.18 0-.36.068-.524.222-.179.171-.293.497-.293.976v6.45c0 .48.114.805.293.975a.75.75 0 0 0 .524.223h.984zm-6.998 12.479l2.778-9.345c-.687-.086-1.419-.325-1.73-.702a2.589 2.589 0 0 1-.571-1.215 5.976 5.976 0 0 1-.098-.993v-7.427c0-.582.034-1.198.163-1.849a3.097 3.097 0 0 1 .932-1.694c.49-.462 1.258-.736 2.304-.736h8.038v23.96h-4.818v-9.105h-.164l-2.095 9.106h-4.74zm-14.675 0v-23.96h4.828v10.234l2.024-.685v-9.55h4.822v23.96h-4.822V28.367l-2.024.684v9.724h-4.828zm-15.11 0v-23.96h4.829v10.234l2.024-.685v-9.55h4.822v23.96h-4.822V28.367l-2.024.684v9.724h-4.828zm-8.337 0v-23.96h4.793v23.96h-4.793zm-4.105-10v5.721c0 .582-.034 1.198-.163 1.848a3.1 3.1 0 0 1-.932 1.695c-.49.462-1.259.736-2.305.736h-4.878c-1.047 0-1.815-.274-2.305-.736a3.09 3.09 0 0 1-.932-1.695 8.185 8.185 0 0 1-.163-1.848V19.092a8.187 8.187 0 0 1 .163-1.849c.131-.667.442-1.232.932-1.694.49-.462 1.258-.736 2.305-.736h4.878c1.047 0 1.815.274 2.305.736.49.462.8 1.027.932 1.694.129.65.163 1.267.163 1.849v5.122l-4.818-2.054v-3.924a.828.828 0 0 0-.196-.548c-.13-.154-.592-.24-.805-.24-.147 0-.62.046-.78.154-.167.115-.261.326-.261.634v17.115c0 .308.102.507.262.616.166.113.592.211.74.211.211 0 .713-.126.844-.28a.827.827 0 0 0 .196-.547v-4.523l4.818-2.054zm-22.27.997h1.83L64.519 18.2l-.32-.003-.754 11.574zm-5.308 9.003l2.339-23.96h7.77l2.459 23.96h-4.84l-.389-5.811-2.233.035-.386 5.776h-4.72zm-14.852 0v-23.96h4.828v10.234l2.024-.685v-9.55h4.822v23.96h-4.822V28.367l-2.024.684v9.724h-4.828z"/>
        <g transform="translate(43.04 1.748)">
            <mask id="b" fill="#fff">
                <use xlink:href="#a"/>
            </mask>
            <path fill="#FFF" d="M4.422 2.864h-1.52v5.419H1.826V2.864H.244V1.85h4.178v1.015zm9.362 2.25c0 .91-.188 1.668-.568 2.282-.45.728-1.098 1.09-1.941 1.09-.848 0-1.495-.362-1.945-1.086-.38-.613-.573-1.372-.573-2.286 0-.908.193-1.672.573-2.281.455-.728 1.101-1.09 1.945-1.09.843 0 1.49.362 1.94 1.09.38.609.569 1.373.569 2.281zm-1.119 0c0-.604-.088-1.107-.267-1.504-.236-.534-.612-.799-1.123-.799-.516 0-.892.265-1.132.794-.18.397-.267.9-.267 1.51 0 .613.088 1.116.267 1.509.236.53.612.794 1.132.794.511 0 .887-.27 1.123-.803.18-.397.267-.896.267-1.5zm9.872-1.252c0 .41-.048.736-.14.979-.297.768-.778 1.147-1.433 1.147h-1.347v2.295h-1.074V1.849h2.325c.79 0 1.302.349 1.538 1.042.087.26.131.582.131.97zm-1.11-.062c0-.26-.057-.473-.166-.64a.632.632 0 0 0-.56-.296h-1.084v2.11h1.137c.227 0 .402-.147.529-.442a1.82 1.82 0 0 0 .144-.732zm9.422-.936h-2.51v5.419h-1.074V1.849h3.584v1.015zm9.444 2.25c0 .91-.188 1.668-.568 2.282-.45.728-1.098 1.09-1.94 1.09-.849 0-1.495-.362-1.946-1.086-.38-.613-.573-1.372-.573-2.286 0-.908.193-1.672.573-2.281.455-.728 1.102-1.09 1.945-1.09s1.49.362 1.941 1.09c.38.609.568 1.373.568 2.281zm-1.119 0c0-.604-.087-1.107-.267-1.504-.236-.534-.612-.799-1.123-.799-.515 0-.891.265-1.132.794-.179.397-.266.9-.266 1.51 0 .613.087 1.116.266 1.509.236.53.612.794 1.132.794.511 0 .887-.27 1.123-.803.18-.397.267-.896.267-1.5zM49.3 6.191c0 .693-.192 1.24-.577 1.65-.275.296-.699.442-1.268.442h-2.36V1.849h2.334c.49 0 .896.159 1.224.472.324.313.49.72.49 1.214 0 .547-.166.988-.499 1.324.17.096.315.264.442.49.14.26.214.542.214.842zm-1.259-2.506c0-.547-.223-.82-.665-.82h-1.205V4.46h1.153c.477 0 .717-.26.717-.776zm.131 2.595c0-.535-.258-.804-.778-.804h-1.223v1.792h1.197c.538 0 .804-.331.804-.988zm10.2 2.003h-1.075V3.8l-2.116 4.483h-1.057V1.849h1.075v4.422l2.116-4.422h1.057v6.434zM66.903.199c0 .406-.157.71-.472.909-.262.163-.608.247-1.032.247-.42 0-.76-.089-1.027-.256-.319-.203-.476-.503-.476-.9h.935c0 .15.057.269.175.357.105.075.236.11.393.11.38 0 .569-.154.569-.467h.935zm.594 8.084h-1.075V3.8l-2.115 4.483h-1.058V1.849h1.075v4.422l2.116-4.422h1.057v6.434zM81.16 9.775h-1.075V8.283l-3.007.008v1.492h-1.075V7.277h.454c.223-.389.42-1.073.595-2.043a19.17 19.17 0 0 0 .279-3.314v-.07h3.375v5.418h.454v2.507zm-1.53-2.507V2.864h-1.267c0 .53-.083 1.293-.245 2.286-.179 1.08-.363 1.787-.542 2.118h2.054zm6.036 1.015h1.075V1.849h-1.075v6.434zm11.052 0h-1.076V3.076l-.926 5.207H93.64l-.936-5.207v5.207H91.63V1.849h1.574l.97 4.942.979-4.942h1.565v6.434z" mask="url(#b)"/>
        </g>
        <g transform="translate(0 .339)">
            <mask id="d" fill="#fff">
                <use xlink:href="#c"/>
            </mask>
            <path fill="#FFF" d="M6.42 36.665c1.528-2.87 3.63-5.444 5.224-8.32L9.95 25.277c-1.24-2.246-2.823-3.12-3.88-6.641L0 27.49c.548 2.697 4.818 7.317 6.42 9.175m20.52-8.613c2.06 2.547 3.693 5.652 5.447 8.44 2.333-2.698 3.523-6.256 6.237-9.195l-6.41-8.695c-2.161 2.91-3.497 6.301-5.274 9.45m-7.548-10.255a21 21 0 0 0 1.023 1.668l5.254 6.49c1.668-3.227 3.072-6.273 5.133-9.244l-1.754-2.255-3.734-5.185c-1.855 3.126-4.115 5.59-5.922 8.526m-1.147-2.188l5.864-8.093C22.279 5.21 20.712 2.73 19.326.13c-2.452 2.531-4.142 4.762-6.141 7.717 1.821 2.542 3.627 4.954 5.06 7.76M7.214 16.722a15.306 15.306 0 0 0 1.526 3.472c1.335 2.228 3.077 4.252 4.076 6.576 1.771-3.049 2.747-6.887 4.21-8.966-1.166-3.14-3.558-5.135-5.228-7.894" mask="url(#d)"/>
        </g>
        <path fill="#FFF" d="M30.95 38.861c-1.518-3.08-3.045-5.674-5.238-8.476-1.53 3.278-3.424 5.828-5.452 8.471l10.69.005zm-12.67.008c-1.922-2.476-3.48-5.639-5.356-8.275-1.463 2.987-3.913 5.25-5.188 8.258l10.544.017zM22.18 32.796c.319-.581.677-1.297.768-1.852 0 0 .257-2.628.15-3.162-.263-1.305-.402-2.88-1.552-4.018l-1.281-1.238c-1.217-.498-1.91-.075-2.48.194-.87.41-1.624 1.608-1.85 2.16-.316.767-.66 1.514-.504 4.315 0 0 .063 1.142.262 1.663.067.174.577 1.416.732 1.775.786 1.818 1.767 2.262 2.911 2.202 1.188-.063 2.262-1.225 2.843-2.039"/>
    </g>
</svg>
