<svg xmlns="http://www.w3.org/2000/svg" width="23" height="23" viewBox="0 0 23 23">
    <g fill="none" fill-rule="evenodd" stroke="#B6CA8B" transform="translate(3 1)">
        <path d="M14.766 4.372l.142-.144.141.144-.141.143-.142-.143zm-.94 1.116l-.285-.236a7.855 7.855 0 0 0-4.668-1.806L8.5 3.428l-.373.018a7.883 7.883 0 0 0-5.281 2.368A8.133 8.133 0 0 0 .5 11.562c0 2.173.833 4.213 2.346 5.748A7.883 7.883 0 0 0 8.5 19.688a7.883 7.883 0 0 0 5.654-2.378 8.133 8.133 0 0 0 2.346-5.748 8.133 8.133 0 0 0-2.346-5.748l-.03-.03-.001-.001-.025-.025-.272-.27zM8.5 2.302l.248-.077a.881.881 0 0 0 .613-.844A.873.873 0 0 0 8.5.5a.873.873 0 0 0-.861.881c0 .391.253.732.613.844l.248.077z"/>
        <path stroke-linecap="square" d="M8.5 11.688V6.375"/>
        <circle cx="8.5" cy="11.688" r="1.063" fill="#B6CA8B"/>
    </g>
</svg>
