<svg xmlns="http://www.w3.org/2000/svg" width="23" height="23" viewBox="0 0 23 23">
    <g fill="none" fill-rule="evenodd" stroke="#B6CA8B">
        <path fill-rule="nonzero" d="M16.5 4.5v2h-10v-2h-5v17H21.5V5.635 4.5h-5z"/>
        <path d="M6.5 3.424V6.5h10V3.424h-2.282l-.146-.241C13.384 2.042 12.539 1.5 11.5 1.5c-1.04 0-1.884.542-2.572 1.683l-.146.241H6.5zM4 10.195h1.768v1.809H4zM4.69 16.354h.387l.095-.095-.095-.096h-.386l-.096.096.096.095zm.31-.267l-.116-.117-.116.117v.344l.116.116.116-.116v-.344zm-1-.733h1.768v1.81H4v-1.81z"/>
        <path stroke-linecap="square" d="M9.258 11.1h9.427M9.258 16.259h9.427"/>
    </g>
</svg>
