<svg xmlns="http://www.w3.org/2000/svg" width="23" height="23" viewBox="0 0 23 23">
    <g fill="none" fill-rule="evenodd" stroke="#B6CA8B">
        <path d="M11.937 13.556c1.193 0 2.152-.915 2.152-2.032 0-1.114-.957-2.024-2.152-2.024-1.192 0-2.151.914-2.151 2.024 0 1.112.961 2.032 2.151 2.032zM7.505 17.51h8.897C16.31 16.117 15.085 15 13.58 15h-3.253c-1.503 0-2.73 1.115-2.822 2.51zm-.005.158a2.568 2.568 0 0 0-.001-.015z"/>
        <path d="M3.5 8.992V21a.5.5 0 0 0 .5.5h15a.5.5 0 0 0 .5-.5V3a.5.5 0 0 0-.5-.5H8.92v4.992a1.5 1.5 0 0 1-1.5 1.5H3.5z"/>
        <path d="M8.654 2.5L3.5 8.673V21a.5.5 0 0 0 .5.5h15a.5.5 0 0 0 .5-.5V3a.5.5 0 0 0-.5-.5H8.654z"/>
    </g>
</svg>
