<svg xmlns="http://www.w3.org/2000/svg" width="23" height="23" viewBox="0 0 23 23">
    <g fill="#B6CA8B" fill-rule="nonzero">
        <path d="M18.46 6.954H6.969A1.948 1.948 0 0 1 5.034 5c0-1.075.866-1.955 1.935-1.955h11.495a.52.52 0 0 0 .517-.522.52.52 0 0 0-.517-.522H6.969C5.333 2 4 3.347 4 5v13.06c0 1.653 1.333 3 2.969 3h11.495a.52.52 0 0 0 .517-.523V7.477a.525.525 0 0 0-.521-.523zm-.517 13.06H6.969a1.948 1.948 0 0 1-1.935-1.954V7.276c.52.452 1.197.726 1.935.726h10.974v12.013z"/>
        <path d="M6.66 4.143a.522.522 0 1 0 0 1.044h9.707a.522.522 0 1 0 0-1.044H6.66z"/>
    </g>
</svg>
