<svg xmlns="http://www.w3.org/2000/svg" width="23" height="23" viewBox="0 0 23 23">
    <g fill="none" fill-rule="evenodd">
        <path stroke="#B6CA8B" d="M2.648 16.75h2.087v2.125a.647.647 0 0 0 .648.645.694.694 0 0 0 .395-.126l3.479-2.629h10.465a.64.64 0 0 0 .649-.645V4.645A.64.64 0 0 0 19.722 4H2.648A.64.64 0 0 0 2 4.645v11.46c0 .361.3.645.648.645z"/>
        <path fill="#B6CA8B" d="M6.671 9h9.658c.376 0 .671-.22.671-.5s-.295-.5-.671-.5H6.67C6.295 8 6 8.22 6 8.5s.295.5.671.5zM6.671 12h9.658c.376 0 .671-.22.671-.5s-.295-.5-.671-.5H6.67c-.376 0-.671.22-.671.5s.295.5.671.5z"/>
    </g>
</svg>
