<svg xmlns="http://www.w3.org/2000/svg" width="23" height="23" viewBox="0 0 23 23">
    <g fill="none" fill-rule="evenodd" stroke="#B6CA8B">
        <path d="M6.317 2.5A2.817 2.817 0 0 0 3.5 5.317v15.24c0 .521.422.943.942.943h13.893c.52 0 .943-.422.943-.942V4.837a.221.221 0 0 0-.221-.222h-3.612c-.411 0-.795-.207-1.021-.552l-.745-1.137a.942.942 0 0 0-.789-.426H6.317z"/>
        <path d="M5.5 6.177h4.71a.5.5 0 0 0 .5-.5V4.5H6a.5.5 0 0 0-.5.5v1.177zM15.5 2.5v2.133h3.13V2.5H15.5z"/>
    </g>
</svg>
