<svg xmlns="http://www.w3.org/2000/svg" width="23" height="23" viewBox="0 0 23 23">
    <g fill="none" fill-rule="nonzero" stroke="#B6CA8B">
        <path d="M19.302 2.5H3.5v6.159c0 2.55.751 5.016 2.172 7.133a12.752 12.752 0 0 0 5.73 4.69 12.752 12.752 0 0 0 5.728-4.69 12.753 12.753 0 0 0 2.172-7.133V2.5zm-7.85 18.004zm-.102 0z"/>
        <path d="M14.906 9.237l-1.143-1.143a.321.321 0 0 0-.454 0l-2.263 2.263L9.69 9.002a.321.321 0 0 0-.454 0l-1.143 1.143a.321.321 0 0 0 0 .454l2.725 2.725a.32.32 0 0 0 .454 0l3.633-3.633a.321.321 0 0 0 0-.454z"/>
    </g>
</svg>
